<?xml version="1.0" standalone="no"?>
<svg xmlns="http://www.w3.org/2000/svg" width="3072" height="1677" viewBox="0 0 3072 1677">
<g transform="translate(0.000000,1677.000000) scale(0.100000,-0.100000)" fill="#000000" stroke="none">
<path d="M9525 9774 c-5 -2 -127 -11 -270 -19 -143 -9 -300 -20 -350 -25 -105
-11 -256 -39 -270 -52 -5 -4 -16 -8 -25 -8 -29 0 -156 -58 -226 -103 -69 -44
-203 -169 -227 -213 -83 -149 -138 -299 -157 -433 -26 -174 -29 -230 -30 -534
0 -266 3 -341 20 -461 24 -170 71 -324 136 -446 43 -79 116 -180 138 -189 5
-2 25 -18 45 -36 70 -63 203 -135 281 -152 14 -3 30 -9 35 -13 32 -24 421 -69
765 -87 417 -23 1012 3 1340 59 126 21 265 64 325 101 129 79 182 124 247 205
96 122 156 279 202 532 21 119 28 247 26 525 -1 341 -12 426 -89 710 -11 40
-76 171 -107 215 -61 87 -132 156 -225 216 -54 35 -103 64 -109 64 -6 0 -38
12 -73 26 -80 33 -275 74 -352 74 -33 0 -74 4 -92 9 -17 5 -112 12 -210 16
-98 3 -216 11 -263 16 -82 9 -465 12 -485 3z m365 -35 c232 -29 269 -40 477
-141 133 -65 258 -164 382 -305 36 -40 71 -73 80 -73 15 -1 35 -10 146 -68 59
-31 122 -103 156 -179 26 -58 31 -80 30 -152 0 -83 -13 -139 -54 -229 -16 -37
-19 -64 -18 -185 1 -141 -18 -317 -38 -356 -6 -11 -11 -30 -11 -43 0 -61 -103
-295 -179 -407 -84 -124 -288 -323 -371 -363 -25 -11 -58 -31 -75 -43 -16 -12
-73 -40 -125 -62 -127 -53 -129 -54 -175 -65 -39 -9 -56 -12 -195 -38 -72 -13
-317 -8 -391 9 -24 6 -86 20 -136 31 -238 54 -476 202 -651 405 -53 62 -67 73
-128 93 -73 26 -157 75 -190 113 -29 34 -67 98 -81 139 -16 44 -16 159 -1 236
6 32 23 79 37 104 23 40 26 55 24 130 -3 132 15 337 38 425 12 44 24 92 26
108 3 15 9 30 14 33 5 3 9 14 9 25 0 27 76 182 125 254 182 270 395 435 703
545 153 55 403 81 572 59z"/>
<path d="M10518 9225 c-3 -4 -48 -10 -100 -15 -119 -12 -213 -26 -227 -35 -7
-3 -42 -11 -79 -16 -36 -5 -71 -14 -76 -19 -6 -6 -19 -10 -30 -10 -12 0 -32
-6 -46 -13 -14 -7 -50 -21 -80 -31 -81 -26 -254 -107 -335 -156 -27 -16 -57
-33 -65 -37 -21 -10 -103 -67 -190 -133 -105 -81 -246 -224 -302 -307 -112
-166 -137 -284 -80 -374 35 -55 44 -62 123 -101 63 -31 65 -31 219 -31 132 0
166 3 230 22 41 13 95 28 120 35 25 7 84 32 132 54 48 23 92 42 97 42 6 0 11
4 11 8 0 5 36 32 79 60 82 53 212 185 242 245 25 50 32 120 16 159 -17 42 -47
62 -122 83 -55 16 -62 16 -134 0 -42 -10 -80 -22 -85 -26 -6 -5 -17 -9 -25 -9
-22 -1 -97 -39 -152 -77 -26 -18 -65 -56 -88 -84 -31 -39 -41 -60 -41 -88 0
-46 5 -52 58 -78 35 -17 49 -19 80 -11 20 5 48 12 62 14 25 5 25 5 -5 -20 -16
-14 -43 -30 -60 -36 -16 -6 -43 -18 -58 -26 -35 -17 -178 -19 -210 -3 -48 25
-67 51 -67 94 0 23 7 50 15 61 8 10 15 26 15 36 0 16 108 128 189 196 49 41
178 111 257 139 188 68 232 76 375 77 l138 0 68 -35 c52 -27 76 -47 101 -85
32 -45 34 -54 30 -114 -4 -71 -43 -170 -87 -228 -102 -129 -271 -302 -297
-302 -4 0 -20 -12 -35 -26 -15 -15 -37 -32 -48 -38 -11 -6 -58 -34 -103 -61
-132 -80 -378 -195 -449 -210 -19 -4 -38 -11 -44 -15 -5 -4 -26 -11 -45 -15
-19 -4 -41 -11 -50 -15 -69 -34 -343 -65 -485 -55 -223 16 -326 78 -386 236
-31 80 -48 191 -37 247 11 60 46 148 75 188 13 17 23 34 23 39 0 7 56 83 74
100 6 6 24 29 40 52 25 38 135 146 217 215 18 15 29 31 25 35 -4 4 -13 0 -20
-10 -7 -9 -18 -17 -24 -17 -6 0 -15 -6 -19 -14 -4 -8 -37 -37 -73 -66 -79 -62
-155 -142 -223 -235 -55 -74 -65 -91 -99 -158 -12 -23 -27 -49 -35 -58 -18
-21 -32 -100 -40 -212 -4 -70 -2 -97 12 -135 23 -60 62 -108 126 -157 137
-104 439 -136 694 -73 22 5 65 14 95 19 30 4 80 18 110 30 30 11 69 25 85 29
55 16 119 40 185 71 119 56 135 64 140 70 3 3 17 9 33 13 15 3 27 11 27 16 0
6 6 10 13 10 8 0 32 12 53 28 21 15 50 33 64 40 43 22 63 36 118 80 30 23 57
42 61 42 11 0 219 207 262 262 67 86 111 183 117 260 7 107 -3 148 -51 202
-33 38 -56 52 -112 72 -61 21 -87 24 -211 25 -117 0 -156 -4 -235 -25 -139
-36 -309 -108 -360 -152 -8 -8 -19 -14 -23 -14 -4 0 -13 -6 -20 -12 -7 -7 -44
-37 -82 -67 -74 -58 -134 -127 -179 -205 -35 -63 -40 -143 -10 -176 39 -43 89
-60 176 -60 77 0 184 24 229 51 8 5 37 20 63 34 78 42 170 145 180 203 8 38
-15 67 -60 78 -16 4 -33 11 -40 16 -6 5 -29 6 -50 2 l-38 -7 20 22 c21 25 17
25 165 -1 82 -14 120 -38 120 -75 0 -13 5 -23 10 -23 12 0 13 15 4 60 -10 48
-53 70 -136 70 -67 0 -90 12 -45 24 12 3 49 6 83 6 52 0 67 -4 102 -29 22 -17
43 -40 47 -51 10 -30 -3 -106 -20 -120 -7 -6 -16 -22 -19 -35 -9 -35 -139
-149 -242 -210 -51 -30 -96 -55 -100 -55 -5 0 -26 -9 -45 -19 -63 -34 -184
-69 -300 -87 -98 -15 -123 -15 -198 -4 -133 20 -202 62 -236 142 -21 52 -19
95 9 170 62 164 226 340 477 510 39 27 73 48 76 48 3 0 39 20 80 45 40 25 76
45 79 45 3 0 26 9 52 21 144 63 149 64 257 97 173 53 309 79 437 85 50 2 59
-1 82 -25 31 -35 43 -35 58 -3 13 29 32 31 141 14 113 -18 214 -73 265 -146
52 -74 65 -113 70 -218 3 -84 1 -110 -17 -163 -58 -171 -230 -399 -434 -577
-54 -47 -67 -65 -49 -65 4 0 22 13 40 29 17 16 58 50 89 75 100 78 252 248
321 359 93 149 147 310 137 406 -8 71 -20 103 -61 166 -67 104 -225 179 -414
195 -47 4 -94 11 -105 14 -11 4 -23 4 -27 1z"/>
<path d="M9037 9203 c-2 -5 -7 -20 -10 -34 -4 -15 -19 -31 -38 -40 -40 -18
-41 -33 -3 -39 22 -4 34 -15 48 -45 l19 -40 15 38 c11 29 22 40 44 44 42 8 43
20 4 45 -20 13 -40 35 -45 51 -10 26 -25 35 -34 20z"/>
<path d="M10272 9027 c-19 -22 10 -41 50 -33 18 4 58 10 88 13 l55 7 -50 8
c-27 4 -68 10 -91 14 -29 4 -43 2 -52 -9z"/>
<path d="M10550 8991 c0 -9 34 -21 64 -21 15 0 16 3 6 15 -13 16 -70 21 -70 6z"/>
<path d="M10640 8961 c0 -5 19 -21 43 -34 24 -14 49 -33 57 -41 7 -9 16 -16
21 -16 20 0 6 19 -42 58 -49 40 -79 52 -79 33z"/>
<path d="M10772 8839 c1 -12 9 -24 16 -27 9 -3 13 3 10 19 -1 12 -9 24 -16 27
-9 3 -13 -3 -10 -19z"/>
<path d="M10812 8745 c0 -16 2 -22 5 -12 2 9 2 23 0 30 -3 6 -5 -1 -5 -18z"/>
<path d="M10886 8635 c-19 -19 -13 -35 14 -35 23 0 33 25 15 40 -10 8 -17 7
-29 -5z"/>
<path d="M8843 8343 c-20 -7 -15 -33 6 -33 11 0 22 4 25 9 8 12 -16 29 -31 24z"/>
<path d="M9390 8292 c0 -10 5 -23 12 -30 14 -14 48 -16 48 -4 0 10 -43 52 -53
52 -4 0 -7 -8 -7 -18z"/>
<path d="M10030 8109 c0 -5 5 -7 10 -4 6 3 10 8 10 11 0 2 -4 4 -10 4 -5 0
-10 -5 -10 -11z"/>
<path d="M8646 8001 c-8 -12 3 -41 15 -41 12 0 12 37 0 45 -5 3 -12 1 -15 -4z"/>
<path d="M10505 7970 c-3 -5 -1 -10 4 -10 6 0 11 5 11 10 0 6 -2 10 -4 10 -3
0 -8 -4 -11 -10z"/>
<path d="M8680 7926 c0 -9 5 -16 10 -16 6 0 10 4 10 9 0 6 -4 13 -10 16 -5 3
-10 -1 -10 -9z"/>
<path d="M8710 7882 c0 -12 57 -52 75 -52 26 0 17 17 -21 39 -37 22 -54 26
-54 13z"/>
<path d="M9452 7868 c-27 -27 -4 -54 31 -36 14 7 15 13 7 28 -12 23 -21 25
-38 8z"/>
<path d="M8812 7818 c3 -7 15 -15 27 -16 16 -3 22 1 19 10 -3 7 -15 15 -27 16
-16 3 -22 -1 -19 -10z"/>
<path d="M8890 7790 c0 -6 26 -10 57 -10 68 0 67 5 -4 13 -31 4 -53 2 -53 -3z"/>
<path d="M8712 7743 l-22 -16 25 -23 c15 -13 30 -24 36 -24 15 0 28 43 17 63
-11 21 -26 21 -56 0z"/>
<path d="M10427 7695 c-21 -27 -24 -34 -12 -39 9 -3 20 -18 26 -33 l10 -28 21
28 c11 15 28 27 39 27 10 0 19 7 19 15 0 8 -4 15 -9 15 -5 0 -22 11 -38 24
l-29 25 -27 -34z"/>
<path d="M5082,9727 L5069,8825 L5084,7821 L5120,7636 C5142,7549 5197,7433 5242,7379 C5307,7298 5398,7215 5446,7190 L5620,7112 L5975,7046 L6824,7039 L7629,7054 L7645,7306 C7645,7539 7645,7542 7622,7560 C7601,7577 7557,7579 6817,7582 L5990,7603 L5905,7629 C5859,7641 5786,7698 5747,7752 L5698,7852 L5675,7915 L5672,8815 C5670,9639 5668,9716 5653,9728 C5629,9746 5097,9745 5082,9727 Z"/>
<path d="M12975,9730 L12770,9706 L12457,9600 L12285,9473 L12201,9381 C12136,9298 12071,9155 12050,9050 L12025,8930 C12000,8813 11988,8551 11994,8251 L12014,7911 L12046,7765 C12089,7560 12183,7391 12317,7275 L12553,7130 L12774,7068 C12871,7048 12913,7047 13810,7040 L14768,7037 L14800,7060 L14796,7556 C14782,7574 14757,7575 13908,7581 L13002,7592 L12919,7620 C12866,7620 12727,7703 12715,7742 L12700,7760 L12628,7919 C12599,8037 12589,8157 12590,8404 C12590,8625 12596,8692 12629,8850 C12651,8956 12703,9034 12793,9101 C12835,9131 12954,9173 13035,9185 L13935,9196 C14731,9199 14785,9200 14797,9216 L14810,9467 C14810,9687 14809,9701 14790,9720 C14770,9740 14758,9740 13933,9738 L12975,9730 Z"/>
<path d="M15330,9727 L15305,9714 L15302,8388 C15300,7164 15301,7061 15317,7049 C15340,7029 15873,7029 15892,7048 L15911,8154 L17642,8152 L17666,7050 L17953,7035 C18216,7031 18230,7031 18240,7049 L18240,9720 C18230,9739 18219,9740 17956,9740 L17669,9723 L17637,8678 L15911,8684 L15902,9204 C15905,9689 15904,9712 15886,9725 C15860,9744 15367,9746 15330,9727 Z"/>
<path d="M18855,9733 L18823,9718 L18810,8385 L18826,7049 L19115,7033 L19404,7045 L19420,8384 C19420,9653 19419,9708 19402,9723 L19129,9739 L18855,9733 Z"/>
<path d="M20830,9729 L20550,9681 C20412,9643 20209,9505 20157,9416 L20120,9355 C20061,9264 20014,9129 19995,8993 L19980,7972 C19980,7138 19981,7061 19997,7049 L20567,7051 L20592,8078 L21575,8090 C22504,8090 22548,8091 22563,8108 L22580,8334 L22570,8561 C22560,8580 22538,8580 21582,8580 L20591,8589 L20601,8899 C20659,9078 20710,9134 20855,9178 L21755,9197 C22532,9200 22606,9202 22618,9217 L22630,9467 C22630,9687 22629,9701 22610,9720 C22590,9740 22578,9740 21783,9739 L20830,9729 Z"/>
<path d="M22890,9725 L22890,9685 L24190,7935 C24209,7906 24210,7887 24210,7484 L24225,7050 C24244,7034 24787,7035 24807,7052 L24820,7480 L24820,7897 L24845,7931 L25921,9392 C26171,9733 26154,9708 26139,9726 L25816,9737 L25478,9720 L24709,8624 C24592,8452 24547,8400 24515,8400 L24006,9088 L23545,9721 C23518,9738 23489,9740 23209,9740 L22890,9725 Z"/>
</g>
</svg>
